<?xml version="1.0" encoding="UTF-8" standalone="no"?>
<!DOCTYPE svg PUBLIC "-//W3C//DTD SVG 1.1//EN" "http://www.w3.org/Graphics/SVG/1.1/DTD/svg11.dtd">
<svg width="100%" height="100%" viewBox="0 0 2568 330" version="1.1" xmlns="http://www.w3.org/2000/svg" xmlns:xlink="http://www.w3.org/1999/xlink" xml:space="preserve" xmlns:serif="http://www.serif.com/" style="fill-rule:evenodd;clip-rule:evenodd;stroke-linejoin:round;stroke-miterlimit:2;">
    <g transform="matrix(1,0,0,1,-1584.15,-9628.05)">
        <g transform="matrix(1,0,0,1,-40.2301,31.3266)">
            <path d="M2256.95,9810.21C2256.23,9818.25 2254.43,9825.97 2251.56,9833.39C2247.73,9843.28 2242.28,9851.7 2235.23,9858.63C2227.8,9866.18 2218.59,9871.5 2207.57,9874.59C2196.56,9877.69 2178.06,9879.23 2152.07,9879.23L2083.21,9879.23L2083.21,9810.21L2126.46,9810.21L2126.46,9842.3L2141.68,9842.3C2157.15,9842.3 2168.72,9841.68 2176.39,9840.44C2184.06,9839.2 2190.12,9837.04 2194.58,9833.94C2200.02,9830.35 2204.23,9825.53 2207.2,9819.46C2208.64,9816.52 2209.73,9813.44 2210.47,9810.21L2256.95,9810.21ZM2083.21,9738.95L2083.21,9607.49L2151.7,9607.49C2171.25,9607.49 2185.7,9608.54 2195.04,9610.65C2204.39,9612.75 2212.34,9616.22 2218.89,9621.04C2227.31,9627.23 2233.84,9635.33 2238.48,9645.36C2243.12,9655.38 2245.44,9666.46 2245.44,9678.58C2245.44,9693.06 2242.1,9705.16 2235.41,9714.87C2228.73,9724.58 2220.37,9732.77 2207.62,9736.61C2199.77,9738.97 2195.52,9739.2 2189.35,9739.2C2083.21,9739.2 2083.21,9738.95 2083.21,9738.95ZM2126.46,9722.2L2143.35,9722.2C2164.39,9722.2 2179.27,9719.33 2187.99,9713.57C2196.71,9707.82 2201.08,9698.13 2201.08,9684.52C2201.08,9669.67 2197.05,9659.25 2189.01,9653.25C2180.97,9647.25 2165.75,9644.24 2143.35,9644.24L2126.46,9644.24L2126.46,9722.2Z" style="fill:white;fill-rule:nonzero;"/>
            <path d="M2346.41,9810.21L2346.41,9839.7L2445.16,9839.7L2445.16,9879.23L2302.24,9879.23L2302.24,9810.21L2346.41,9810.21ZM2346.41,9738.95L2302.24,9738.95L2302.24,9607.49L2346.41,9607.49L2346.41,9738.95Z" style="fill:white;fill-rule:nonzero;"/>
            <path d="M2521.57,9810.21L2490.45,9879.23L2444.05,9879.23L2476.2,9810.21L2521.57,9810.21ZM2674.95,9810.21L2707.06,9879.23L2660.47,9879.23L2630.08,9810.21L2674.95,9810.21ZM2641.81,9738.95L2575.65,9596.73L2509.39,9738.95L2553.41,9738.95L2566.18,9710.51C2567.91,9706.18 2569.61,9701.44 2571.28,9696.31C2572.95,9691.17 2574.53,9685.64 2576.02,9679.7C2577.75,9686.01 2579.48,9691.73 2581.22,9696.87C2582.95,9702 2584.62,9706.55 2586.23,9710.51L2599,9738.95L2641.81,9738.95Z" style="fill:white;fill-rule:nonzero;"/>
            <path d="M2781.55,9810.21C2783.36,9812.5 2785.29,9814.71 2787.34,9816.87C2805.47,9835.92 2828.33,9845.45 2855.93,9845.45C2872.01,9845.45 2887.33,9842.6 2901.86,9836.91C2916.4,9831.22 2930.36,9822.62 2943.72,9811.11L2943.72,9861.04C2931.84,9869.58 2918.91,9875.95 2904.93,9880.16C2890.94,9884.37 2875.78,9886.47 2859.45,9886.47C2838.66,9886.47 2819.45,9883.07 2801.82,9876.26C2784.18,9869.46 2768.69,9859.43 2755.32,9846.19C2744.64,9835.71 2735.95,9823.72 2729.25,9810.21L2781.55,9810.21ZM2714.19,9738.95C2714.73,9720.88 2718.27,9703.82 2724.79,9687.77C2731.9,9670.26 2742.2,9654.89 2755.69,9641.65C2769.18,9628.28 2784.65,9618.17 2802.1,9611.3C2819.54,9604.43 2838.41,9601 2858.71,9601C2874.67,9601 2889.89,9603.32 2904.37,9607.96C2918.85,9612.6 2932.89,9619.62 2946.51,9629.02L2944.09,9673.57C2931.59,9662.93 2918.38,9654.95 2904.46,9649.63C2890.54,9644.31 2875.91,9641.65 2860.57,9641.65C2830.87,9641.65 2806.71,9651.17 2788.08,9670.23C2770.56,9688.16 2761.28,9711.07 2760.25,9738.95L2714.19,9738.95Z" style="fill:white;fill-rule:nonzero;"/>
            <path d="M3148.34,9810.21L3207.48,9879.23L3150.49,9879.23L3092.79,9810.21L3148.34,9810.21ZM3043.02,9810.21L3043.02,9879.23L2998.85,9879.23L2998.85,9810.21L3043.02,9810.21ZM2998.85,9738.95L2998.85,9607.49L3043.02,9607.49L3043.02,9730.28L3140.66,9607.49L3194.67,9607.49L3087.01,9738.63L3087.29,9738.95L2998.85,9738.95Z" style="fill:white;fill-rule:nonzero;"/>
            <path d="M3549.88,9810.21L3518.76,9879.23L3472.35,9879.23L3504.5,9810.21L3549.88,9810.21ZM3703.26,9810.21L3735.37,9879.23L3688.78,9879.23L3658.39,9810.21L3703.26,9810.21ZM3670.11,9738.95L3603.95,9596.73L3537.7,9738.95L3581.71,9738.95L3594.49,9710.51C3596.22,9706.18 3597.92,9701.44 3599.59,9696.31C3601.26,9691.17 3602.84,9685.64 3604.32,9679.7C3606.06,9686.01 3607.79,9691.73 3609.52,9696.87C3611.25,9702 3612.92,9706.55 3614.53,9710.51L3627.31,9738.95L3670.11,9738.95Z" style="fill:white;fill-rule:nonzero;"/>
            <path d="M3921.09,9810.21C3919.59,9832.3 3911.57,9850.14 3897.04,9863.73C3880.83,9878.89 3858.93,9886.47 3831.33,9886.47C3808.19,9886.47 3789.23,9881.15 3774.44,9870.51C3759.65,9859.87 3749.97,9844.65 3745.39,9824.85L3776.99,9810.21L3781.15,9810.21C3784.58,9821.51 3790.55,9830.19 3799.03,9836.26C3807.94,9842.64 3819.33,9845.82 3833.19,9845.82C3846.3,9845.82 3856.73,9842.17 3864.46,9834.87C3871.19,9828.52 3874.99,9820.3 3875.87,9810.21L3921.09,9810.21ZM3791.97,9738.95C3781.2,9731.96 3773.19,9725.36 3767.94,9719.14C3757.98,9707.32 3753,9692.88 3753,9675.8C3753,9653.65 3760.52,9635.71 3775.55,9621.97C3790.59,9608.24 3810.29,9601.37 3834.67,9601.37C3854.72,9601.37 3871.49,9605.23 3884.97,9612.97C3898.46,9620.7 3907.8,9631.81 3913,9646.29L3878.48,9664.1C3873.03,9655.57 3867.06,9649.32 3860.57,9645.36C3854.07,9641.4 3846.61,9639.42 3838.2,9639.42C3826.32,9639.42 3816.88,9642.51 3809.89,9648.7C3802.9,9654.89 3799.41,9663.18 3799.41,9673.57C3799.41,9689.91 3814.75,9705.13 3845.44,9719.23C3847.79,9720.35 3849.64,9721.21 3851.01,9721.83C3863.52,9727.6 3874.21,9733.31 3883.07,9738.95L3791.97,9738.95Z" style="fill:white;fill-rule:nonzero;"/>
            <path d="M4191.61,9810.21L4191.61,9879.23L4147.43,9879.23L4147.43,9810.21L4191.61,9810.21ZM4013.79,9810.21L4013.79,9879.23L3969.61,9879.23L3969.61,9810.21L4013.79,9810.21ZM3969.61,9738.95L3969.61,9607.49L4013.79,9607.49L4013.79,9707.72L4147.43,9707.72L4147.43,9607.49L4191.61,9607.49L4191.61,9738.95L3969.61,9738.95Z" style="fill:white;fill-rule:nonzero;"/>
            <path d="M3452.01,9810.21C3443.94,9827.7 3432.41,9842.23 3417.41,9853.8C3405.53,9862.96 3392.01,9869.49 3376.85,9873.39C3361.69,9877.28 3338.09,9879.23 3306.04,9879.23L3234.58,9879.23L3234.58,9810.21L3278.76,9810.21L3278.76,9839.33L3315.88,9839.33C3336.3,9839.33 3351.61,9837.96 3361.82,9835.24C3372.03,9832.52 3380.91,9827.94 3388.45,9821.51C3392.47,9818.07 3396.1,9814.3 3399.33,9810.21L3452.01,9810.21ZM3234.58,9738.95L3234.58,9607.49L3294.16,9607.49C3332.89,9607.49 3360.15,9609.44 3375.93,9613.34C3391.7,9617.24 3405.53,9623.76 3417.41,9632.92C3433.12,9644.93 3445.03,9660.33 3453.14,9679.14C3460.73,9696.75 3464.76,9716.68 3465.25,9738.95L3419.21,9738.95C3418.83,9723.37 3416.28,9709.59 3411.56,9697.61C3406.43,9684.55 3398.72,9673.63 3388.45,9664.85C3380.78,9658.41 3371.59,9653.83 3360.89,9651.11C3350.19,9648.39 3333.45,9647.03 3310.68,9647.03L3278.76,9647.03L3278.76,9738.95L3234.58,9738.95Z" style="fill:white;fill-rule:nonzero;"/>
            <path d="M1736.72,9926.2L1625.11,9810.21L1848.34,9810.21L1736.72,9926.2ZM1849.07,9738.95L1624.38,9738.95L1736.72,9622.2L1849.07,9738.95Z" style="fill:white;"/>
        </g>
    </g>
</svg>
